<?xml version="1.0" encoding="UTF-8" standalone="no"?>
<!DOCTYPE svg PUBLIC "-//W3C//DTD SVG 1.1//EN"
 "http://www.w3.org/Graphics/SVG/1.1/DTD/svg11.dtd">
<!-- Generated by graphviz version 2.40.1 (20161225.0304)
 -->
<!-- Pages: 1 -->
<svg width="392pt" height="401pt"
 viewBox="0.00 0.00 392.00 401.00" xmlns="http://www.w3.org/2000/svg" xmlns:xlink="http://www.w3.org/1999/xlink">
<g id="graph0" class="graph" transform="scale(1 1) rotate(0) translate(4 397)">
<polygon fill="#ffffff" stroke="transparent" points="-4,4 -4,-397 388,-397 388,4 -4,4"/>
<!-- text1 -->
<g id="node1" class="node">
<title>text1</title>
<polygon fill="#494744" stroke="#494744" points="30,-393 0,-393 0,-378 30,-378 30,-393"/>
<text text-anchor="middle" x="15" y="-383.6" font-family="Helvetica,sans-Serif" font-size="8.00" fill="#ffffff">text1</text>
</g>
<!-- textcomposite1 -->
<g id="node2" class="node">
<title>textcomposite1</title>
<polygon fill="#494744" stroke="#494744" points="83,-339 17,-339 17,-324 83,-324 83,-339"/>
<text text-anchor="middle" x="50" y="-329.6" font-family="Helvetica,sans-Serif" font-size="8.00" fill="#ffffff">textcomposite1</text>
</g>
<!-- text1&#45;&gt;textcomposite1 -->
<g id="edge1" class="edge">
<title>text1&#45;&gt;textcomposite1</title>
<path fill="none" stroke="#494744" d="M13.3943,-377.9872C12.3663,-371.2626 11.8942,-361.3581 16,-354 17.9616,-350.4845 20.7299,-347.4205 23.8494,-344.7809"/>
<polygon fill="#494744" stroke="#494744" points="25.8476,-347.6545 32.0685,-339.0783 21.8572,-341.9033 25.8476,-347.6545"/>
<text text-anchor="middle" x="40" y="-356.6" font-family="Helvetica,sans-Serif" font-size="8.00" fill="#000000"> &#160;foreground &#160;</text>
</g>
<!-- textcomposite2 -->
<g id="node4" class="node">
<title>textcomposite2</title>
<polygon fill="#ffffff" stroke="#494744" points="145,-285 79,-285 79,-270 145,-270 145,-285"/>
<text text-anchor="middle" x="112" y="-275.6" font-family="Helvetica,sans-Serif" font-size="8.00" fill="#494744">textcomposite2</text>
</g>
<!-- textcomposite1&#45;&gt;textcomposite2 -->
<g id="edge3" class="edge">
<title>textcomposite1&#45;&gt;textcomposite2</title>
<path fill="none" stroke="#494744" d="M51.1959,-323.8763C52.6513,-316.8867 55.7374,-306.6426 62,-300 65.9179,-295.8443 70.7459,-292.4007 75.8422,-289.5635"/>
<polygon fill="#494744" stroke="#494744" points="77.6651,-292.5709 85.1665,-285.089 74.6365,-286.26 77.6651,-292.5709"/>
<text text-anchor="middle" x="87.5" y="-302.6" font-family="Helvetica,sans-Serif" font-size="8.00" fill="#000000"> &#160;background &#160;</text>
</g>
<!-- textmask1 -->
<g id="node3" class="node">
<title>textmask1</title>
<polygon fill="#494744" stroke="#494744" points="110.5,-393 61.5,-393 61.5,-378 110.5,-378 110.5,-393"/>
<text text-anchor="middle" x="86" y="-383.6" font-family="Helvetica,sans-Serif" font-size="8.00" fill="#ffffff">textmask1</text>
</g>
<!-- textmask1&#45;&gt;textcomposite1 -->
<g id="edge2" class="edge">
<title>textmask1&#45;&gt;textcomposite1</title>
<path fill="none" stroke="#494744" d="M80.9944,-377.9915C75.7876,-370.1814 67.4748,-357.7122 60.7684,-347.6526"/>
<polygon fill="#494744" stroke="#494744" points="63.6555,-345.6734 55.1963,-339.2944 57.8311,-349.5564 63.6555,-345.6734"/>
<text text-anchor="middle" x="95.5" y="-356.6" font-family="Helvetica,sans-Serif" font-size="8.00" fill="#000000"> &#160;background &#160;</text>
</g>
<!-- shadowoffset -->
<g id="node6" class="node">
<title>shadowoffset</title>
<polygon fill="#ffffff" stroke="#494744" points="182,-231 122,-231 122,-216 182,-216 182,-231"/>
<text text-anchor="middle" x="152" y="-221.6" font-family="Helvetica,sans-Serif" font-size="8.00" fill="#494744">shadowoffset</text>
</g>
<!-- textcomposite2&#45;&gt;shadowoffset -->
<g id="edge5" class="edge">
<title>textcomposite2&#45;&gt;shadowoffset</title>
<path fill="none" stroke="#494744" d="M117.5618,-269.9915C123.4061,-262.1017 132.7724,-249.4573 140.2626,-239.3454"/>
<polygon fill="#494744" stroke="#494744" points="143.0865,-241.4133 146.2264,-231.2944 137.4616,-237.2467 143.0865,-241.4133"/>
<text text-anchor="middle" x="149.5" y="-248.6" font-family="Helvetica,sans-Serif" font-size="8.00" fill="#000000"> &#160;image &#160;</text>
</g>
<!-- finalcomposite -->
<g id="node7" class="node">
<title>finalcomposite</title>
<polygon fill="#ffffff" stroke="#494744" points="237,-69 173,-69 173,-54 237,-54 237,-69"/>
<text text-anchor="middle" x="205" y="-59.6" font-family="Helvetica,sans-Serif" font-size="8.00" fill="#494744">finalcomposite</text>
</g>
<!-- textcomposite2&#45;&gt;finalcomposite -->
<g id="edge6" class="edge">
<title>textcomposite2&#45;&gt;finalcomposite</title>
<path fill="none" stroke="#494744" d="M106.6744,-269.8498C100.1635,-259.7308 90,-241.1143 90,-223.5 90,-223.5 90,-223.5 90,-115.5 90,-98.3594 132.3879,-82.1276 165.6949,-72.019"/>
<polygon fill="#494744" stroke="#494744" points="167.0754,-75.2614 175.6831,-69.0842 165.102,-68.5453 167.0754,-75.2614"/>
<text text-anchor="middle" x="104.5" y="-167.6" font-family="Helvetica,sans-Serif" font-size="8.00" fill="#000000"> &#160;mask &#160;</text>
</g>
<!-- text2 -->
<g id="node5" class="node">
<title>text2</title>
<polygon fill="#ffffff" stroke="#494744" points="139,-339 109,-339 109,-324 139,-324 139,-339"/>
<text text-anchor="middle" x="124" y="-329.6" font-family="Helvetica,sans-Serif" font-size="8.00" fill="#494744">text2</text>
</g>
<!-- text2&#45;&gt;textcomposite2 -->
<g id="edge4" class="edge">
<title>text2&#45;&gt;textcomposite2</title>
<path fill="none" stroke="#494744" d="M122.3315,-323.9915C120.6844,-316.5799 118.105,-304.9725 115.9356,-295.2102"/>
<polygon fill="#494744" stroke="#494744" points="119.3181,-294.297 113.7321,-285.2944 112.4848,-295.8155 119.3181,-294.297"/>
<text text-anchor="middle" x="142" y="-302.6" font-family="Helvetica,sans-Serif" font-size="8.00" fill="#000000"> &#160;foreground &#160;</text>
</g>
<!-- shadowblur -->
<g id="node8" class="node">
<title>shadowblur</title>
<polygon fill="#ffffff" stroke="#494744" points="190.5,-177 137.5,-177 137.5,-162 190.5,-162 190.5,-177"/>
<text text-anchor="middle" x="164" y="-167.6" font-family="Helvetica,sans-Serif" font-size="8.00" fill="#494744">shadowblur</text>
</g>
<!-- shadowoffset&#45;&gt;shadowblur -->
<g id="edge7" class="edge">
<title>shadowoffset&#45;&gt;shadowblur</title>
<path fill="none" stroke="#494744" d="M153.6685,-215.9915C155.3156,-208.5799 157.895,-196.9725 160.0644,-187.2102"/>
<polygon fill="#494744" stroke="#494744" points="163.5152,-187.8155 162.2679,-177.2944 156.6819,-186.297 163.5152,-187.8155"/>
<text text-anchor="middle" x="173.5" y="-194.6" font-family="Helvetica,sans-Serif" font-size="8.00" fill="#000000"> &#160;image &#160;</text>
</g>
<!-- save -->
<g id="node11" class="node">
<title>save</title>
<polygon fill="#ffffff" stroke="#494744" points="219.5,-15 190.5,-15 190.5,0 219.5,0 219.5,-15"/>
<text text-anchor="middle" x="205" y="-5.6" font-family="Helvetica,sans-Serif" font-size="8.00" fill="#494744">save</text>
</g>
<!-- finalcomposite&#45;&gt;save -->
<g id="edge11" class="edge">
<title>finalcomposite&#45;&gt;save</title>
<path fill="none" stroke="#494744" d="M205,-53.9915C205,-46.6596 205,-35.2216 205,-25.5258"/>
<polygon fill="#494744" stroke="#494744" points="208.5001,-25.2944 205,-15.2944 201.5001,-25.2944 208.5001,-25.2944"/>
<text text-anchor="middle" x="220.5" y="-32.6" font-family="Helvetica,sans-Serif" font-size="8.00" fill="#000000"> &#160;image &#160;</text>
</g>
<!-- shadowcomposite -->
<g id="node9" class="node">
<title>shadowcomposite</title>
<polygon fill="#ffffff" stroke="#494744" points="244.5,-123 167.5,-123 167.5,-108 244.5,-108 244.5,-123"/>
<text text-anchor="middle" x="206" y="-113.6" font-family="Helvetica,sans-Serif" font-size="8.00" fill="#494744">shadowcomposite</text>
</g>
<!-- shadowblur&#45;&gt;shadowcomposite -->
<g id="edge8" class="edge">
<title>shadowblur&#45;&gt;shadowcomposite</title>
<path fill="none" stroke="#494744" d="M168.1933,-161.9492C171.9816,-155.3761 177.886,-145.7183 184,-138 185.9718,-135.5108 188.1823,-132.9921 190.4215,-130.5855"/>
<polygon fill="#494744" stroke="#494744" points="193.3238,-132.626 197.8396,-123.0417 188.3326,-127.7179 193.3238,-132.626"/>
<text text-anchor="middle" x="198.5" y="-140.6" font-family="Helvetica,sans-Serif" font-size="8.00" fill="#000000"> &#160;mask &#160;</text>
</g>
<!-- shadowcomposite&#45;&gt;finalcomposite -->
<g id="edge10" class="edge">
<title>shadowcomposite&#45;&gt;finalcomposite</title>
<path fill="none" stroke="#494744" d="M205.861,-107.9915C205.7252,-100.6596 205.5134,-89.2216 205.3338,-79.5258"/>
<polygon fill="#494744" stroke="#494744" points="208.829,-79.2278 205.1443,-69.2944 201.8302,-79.3575 208.829,-79.2278"/>
<text text-anchor="middle" x="230.5" y="-86.6" font-family="Helvetica,sans-Serif" font-size="8.00" fill="#000000"> &#160;background &#160;</text>
</g>
<!-- shadowfill -->
<g id="node10" class="node">
<title>shadowfill</title>
<polygon fill="#494744" stroke="#494744" points="257,-177 209,-177 209,-162 257,-162 257,-177"/>
<text text-anchor="middle" x="233" y="-167.6" font-family="Helvetica,sans-Serif" font-size="8.00" fill="#ffffff">shadowfill</text>
</g>
<!-- shadowfill&#45;&gt;shadowcomposite -->
<g id="edge9" class="edge">
<title>shadowfill&#45;&gt;shadowcomposite</title>
<path fill="none" stroke="#494744" d="M229.2458,-161.9915C225.4204,-154.3408 219.3596,-142.2193 214.3857,-132.2715"/>
<polygon fill="#494744" stroke="#494744" points="217.4999,-130.6734 209.8972,-123.2944 211.2389,-133.8039 217.4999,-130.6734"/>
<text text-anchor="middle" x="245" y="-140.6" font-family="Helvetica,sans-Serif" font-size="8.00" fill="#000000"> &#160;foreground &#160;</text>
</g>
<!-- textfill -->
<g id="node12" class="node">
<title>textfill</title>
<polygon fill="#494744" stroke="#494744" points="295.5,-123 262.5,-123 262.5,-108 295.5,-108 295.5,-123"/>
<text text-anchor="middle" x="279" y="-113.6" font-family="Helvetica,sans-Serif" font-size="8.00" fill="#ffffff">textfill</text>
</g>
<!-- textfill&#45;&gt;finalcomposite -->
<g id="edge12" class="edge">
<title>textfill&#45;&gt;finalcomposite</title>
<path fill="none" stroke="#494744" d="M275.2415,-107.8483C271.4665,-100.839 265.0602,-90.5816 257,-84 251.6761,-79.6527 245.3844,-76.0024 239.0499,-72.9923"/>
<polygon fill="#494744" stroke="#494744" points="240.4155,-69.7697 229.8463,-69.0338 237.6497,-76.2002 240.4155,-69.7697"/>
<text text-anchor="middle" x="289" y="-86.6" font-family="Helvetica,sans-Serif" font-size="8.00" fill="#000000"> &#160;foreground &#160;</text>
</g>
<!-- image1 -->
<g id="node13" class="node">
<title>image1</title>
<polygon fill="#494744" stroke="#494744" points="225.5,-393 186.5,-393 186.5,-378 225.5,-378 225.5,-393"/>
<text text-anchor="middle" x="206" y="-383.6" font-family="Helvetica,sans-Serif" font-size="8.00" fill="#ffffff">image1</text>
</g>
<!-- colormap1 -->
<g id="node14" class="node">
<title>colormap1</title>
<polygon fill="#494744" stroke="#494744" points="231,-339 181,-339 181,-324 231,-324 231,-339"/>
<text text-anchor="middle" x="206" y="-329.6" font-family="Helvetica,sans-Serif" font-size="8.00" fill="#ffffff">colormap1</text>
</g>
<!-- image1&#45;&gt;colormap1 -->
<g id="edge13" class="edge">
<title>image1&#45;&gt;colormap1</title>
<path fill="none" stroke="#494744" d="M206,-377.9915C206,-370.6596 206,-359.2216 206,-349.5258"/>
<polygon fill="#494744" stroke="#494744" points="209.5001,-349.2944 206,-339.2944 202.5001,-349.2944 209.5001,-349.2944"/>
<text text-anchor="middle" x="221.5" y="-356.6" font-family="Helvetica,sans-Serif" font-size="8.00" fill="#000000"> &#160;image &#160;</text>
</g>
<!-- rename1 -->
<g id="node15" class="node">
<title>rename1</title>
<polygon fill="#494744" stroke="#494744" points="228,-285 184,-285 184,-270 228,-270 228,-285"/>
<text text-anchor="middle" x="206" y="-275.6" font-family="Helvetica,sans-Serif" font-size="8.00" fill="#ffffff">rename1</text>
</g>
<!-- colormap1&#45;&gt;rename1 -->
<g id="edge14" class="edge">
<title>colormap1&#45;&gt;rename1</title>
<path fill="none" stroke="#494744" d="M206,-323.9915C206,-316.6596 206,-305.2216 206,-295.5258"/>
<polygon fill="#494744" stroke="#494744" points="209.5001,-295.2944 206,-285.2944 202.5001,-295.2944 209.5001,-295.2944"/>
<text text-anchor="middle" x="221.5" y="-302.6" font-family="Helvetica,sans-Serif" font-size="8.00" fill="#000000"> &#160;image &#160;</text>
</g>
<!-- composite1 -->
<g id="node16" class="node">
<title>composite1</title>
<polygon fill="#494744" stroke="#494744" points="303.5,-231 250.5,-231 250.5,-216 303.5,-216 303.5,-231"/>
<text text-anchor="middle" x="277" y="-221.6" font-family="Helvetica,sans-Serif" font-size="8.00" fill="#ffffff">composite1</text>
</g>
<!-- rename1&#45;&gt;composite1 -->
<g id="edge15" class="edge">
<title>rename1&#45;&gt;composite1</title>
<path fill="none" stroke="#494744" d="M208.9984,-269.8366C212.0836,-262.819 217.498,-252.556 225,-246 229.9094,-241.7097 235.7624,-238.1327 241.7413,-235.1873"/>
<polygon fill="#494744" stroke="#494744" points="243.3744,-238.2928 251.1228,-231.0669 240.5595,-231.8837 243.3744,-238.2928"/>
<text text-anchor="middle" x="249" y="-248.6" font-family="Helvetica,sans-Serif" font-size="8.00" fill="#000000"> &#160;foreground &#160;</text>
</g>
<!-- composite2 -->
<g id="node17" class="node">
<title>composite2</title>
<polygon fill="#494744" stroke="#494744" points="329.5,-177 276.5,-177 276.5,-162 329.5,-162 329.5,-177"/>
<text text-anchor="middle" x="303" y="-167.6" font-family="Helvetica,sans-Serif" font-size="8.00" fill="#ffffff">composite2</text>
</g>
<!-- composite1&#45;&gt;composite2 -->
<g id="edge16" class="edge">
<title>composite1&#45;&gt;composite2</title>
<path fill="none" stroke="#494744" d="M275.6263,-215.8623C274.8007,-209.2334 274.4963,-199.5427 278,-192 279.3145,-189.1701 281.1696,-186.5412 283.2822,-184.1527"/>
<polygon fill="#494744" stroke="#494744" points="286.0526,-186.3602 291.0459,-177.0158 281.3152,-181.2068 286.0526,-186.3602"/>
<text text-anchor="middle" x="303.5" y="-194.6" font-family="Helvetica,sans-Serif" font-size="8.00" fill="#000000"> &#160;background &#160;</text>
</g>
<!-- composite2&#45;&gt;shadowcomposite -->
<g id="edge20" class="edge">
<title>composite2&#45;&gt;shadowcomposite</title>
<path fill="none" stroke="#494744" d="M297.3928,-161.7316C291.9045,-154.6398 282.9384,-144.3266 273,-138 265.4794,-133.2125 256.8308,-129.3301 248.3003,-126.2248"/>
<polygon fill="#494744" stroke="#494744" points="249.3796,-122.8952 238.7857,-123.042 247.1589,-129.5336 249.3796,-122.8952"/>
<text text-anchor="middle" x="309.5" y="-140.6" font-family="Helvetica,sans-Serif" font-size="8.00" fill="#000000"> &#160;background &#160;</text>
</g>
<!-- image2 -->
<g id="node18" class="node">
<title>image2</title>
<polygon fill="#494744" stroke="#494744" points="370.5,-339 331.5,-339 331.5,-324 370.5,-324 370.5,-339"/>
<text text-anchor="middle" x="351" y="-329.6" font-family="Helvetica,sans-Serif" font-size="8.00" fill="#ffffff">image2</text>
</g>
<!-- colormap2 -->
<g id="node19" class="node">
<title>colormap2</title>
<polygon fill="#494744" stroke="#494744" points="376,-285 326,-285 326,-270 376,-270 376,-285"/>
<text text-anchor="middle" x="351" y="-275.6" font-family="Helvetica,sans-Serif" font-size="8.00" fill="#ffffff">colormap2</text>
</g>
<!-- image2&#45;&gt;colormap2 -->
<g id="edge17" class="edge">
<title>image2&#45;&gt;colormap2</title>
<path fill="none" stroke="#494744" d="M351,-323.9915C351,-316.6596 351,-305.2216 351,-295.5258"/>
<polygon fill="#494744" stroke="#494744" points="354.5001,-295.2944 351,-285.2944 347.5001,-295.2944 354.5001,-295.2944"/>
<text text-anchor="middle" x="366.5" y="-302.6" font-family="Helvetica,sans-Serif" font-size="8.00" fill="#000000"> &#160;image &#160;</text>
</g>
<!-- rename2 -->
<g id="node20" class="node">
<title>rename2</title>
<polygon fill="#494744" stroke="#494744" points="373,-231 329,-231 329,-216 373,-216 373,-231"/>
<text text-anchor="middle" x="351" y="-221.6" font-family="Helvetica,sans-Serif" font-size="8.00" fill="#ffffff">rename2</text>
</g>
<!-- colormap2&#45;&gt;rename2 -->
<g id="edge18" class="edge">
<title>colormap2&#45;&gt;rename2</title>
<path fill="none" stroke="#494744" d="M351,-269.9915C351,-262.6596 351,-251.2216 351,-241.5258"/>
<polygon fill="#494744" stroke="#494744" points="354.5001,-241.2944 351,-231.2944 347.5001,-241.2944 354.5001,-241.2944"/>
<text text-anchor="middle" x="366.5" y="-248.6" font-family="Helvetica,sans-Serif" font-size="8.00" fill="#000000"> &#160;image &#160;</text>
</g>
<!-- rename2&#45;&gt;composite2 -->
<g id="edge19" class="edge">
<title>rename2&#45;&gt;composite2</title>
<path fill="none" stroke="#494744" d="M346.4185,-215.8567C342.2713,-209.2242 335.7883,-199.5314 329,-192 326.4097,-189.1261 323.4645,-186.2653 320.5101,-183.595"/>
<polygon fill="#494744" stroke="#494744" points="322.781,-180.9318 312.9056,-177.094 318.2323,-186.2524 322.781,-180.9318"/>
<text text-anchor="middle" x="360" y="-194.6" font-family="Helvetica,sans-Serif" font-size="8.00" fill="#000000"> &#160;foreground &#160;</text>
</g>
<!-- background -->
<g id="node21" class="node">
<title>background</title>
<polygon fill="#494744" stroke="#494744" points="304,-285 250,-285 250,-270 304,-270 304,-285"/>
<text text-anchor="middle" x="277" y="-275.6" font-family="Helvetica,sans-Serif" font-size="8.00" fill="#ffffff">background</text>
</g>
<!-- background&#45;&gt;composite1 -->
<g id="edge21" class="edge">
<title>background&#45;&gt;composite1</title>
<path fill="none" stroke="#494744" d="M277,-269.9915C277,-262.6596 277,-251.2216 277,-241.5258"/>
<polygon fill="#494744" stroke="#494744" points="280.5001,-241.2944 277,-231.2944 273.5001,-241.2944 280.5001,-241.2944"/>
<text text-anchor="middle" x="302.5" y="-248.6" font-family="Helvetica,sans-Serif" font-size="8.00" fill="#000000"> &#160;background &#160;</text>
</g>
</g>
</svg>
